<!-- Generator: Adobe Illustrator 25.2.0, SVG Export Plug-In  -->
<svg version="1.1" xmlns="http://www.w3.org/2000/svg" xmlns:xlink="http://www.w3.org/1999/xlink" x="0px" y="0px" width="201.2px"
	 height="162.3px" viewBox="0 0 201.2 162.3" style="overflow:visible;enable-background:new 0 0 201.2 162.3;"
	 xml:space="preserve">
<style type="text/css">
	.st0{fill:url(#SVGID_1_);}
	.st1{fill:none;stroke:#000000;stroke-miterlimit:10;}
	.st2{fill:#32B44A;}
	.st3{fill:url(#SVGID_2_);}
</style>
<defs>
</defs>
<g>
	<linearGradient id="SVGID_1_" gradientUnits="userSpaceOnUse" x1="-4.3205" y1="99.6211" x2="179.2072" y2="99.6211">
		<stop  offset="0" style="stop-color:#D7DF23"/>
		<stop  offset="3.014093e-02" style="stop-color:#C8DA2C"/>
		<stop  offset="9.129184e-02" style="stop-color:#AED136"/>
		<stop  offset="0.1538" style="stop-color:#9CCB3B"/>
		<stop  offset="0.2181" style="stop-color:#91C83E"/>
		<stop  offset="0.2865" style="stop-color:#8DC63F"/>
		<stop  offset="0.6685" style="stop-color:#39B54A"/>
		<stop  offset="0.8876" style="stop-color:#009444"/>
		<stop  offset="1" style="stop-color:#006838"/>
	</linearGradient>
	<path class="st0" d="M2.3,66.4c2.2,9.2,4.6,18.4,7.3,27.5c2.7,9.1,5.5,18.1,8.8,27c1.6,4.4,3.4,8.8,5.3,13.1
		c1.9,4.3,4.1,8.5,6.6,12.3c1.3,1.9,2.6,3.7,4.2,5.2c1.5,1.5,3.3,2.7,4.8,2.9c0.8,0.1,1.5,0,2.3-0.4c0.7-0.4,1.5-0.9,2.2-1.7
		c0.7-0.7,1.3-1.6,1.9-2.5c0.6-0.9,1.1-1.9,1.7-2.9c8.8-16.6,15.2-34.5,21.9-52.3c1.7-4.5,3.3-8.9,5.1-13.4c0.9-2.2,1.8-4.4,2.7-6.7
		c1-2.4,2.2-4.6,3.6-6.7c1.4-2.1,2.9-4.2,4.7-6.1c1.8-1.9,3.8-3.7,6.5-5c0.6-0.3,1.4-0.6,2.1-0.9c0.8-0.2,1.5-0.5,2.3-0.5
		c1.5-0.2,3.1-0.2,4.7,0.2c0.8,0.2,1.6,0.4,2.3,0.8l1.1,0.5c0.3,0.2,0.6,0.4,1,0.6l0.9,0.7l0.8,0.7l0.8,0.8l0.7,0.8
		c3.7,4.4,5.4,9.2,6.9,14c1.4,4.8,2.4,9.6,3.1,14.4c0.8,4.8,1.3,9.6,1.7,14.4c0.4,4.8,0.7,9.7,0.9,14.3c0.3,4.7,0.6,9.3,1.2,13.9
		c0.6,4.6,1.4,9.1,2.6,13.3c0.6,2.1,1.4,4.1,2.3,5.8c0.9,1.7,2.1,2.9,2.7,3.1c0.3,0.1,0.5,0.1,1,0c0.1,0,0.2-0.1,0.4-0.1
		c0.1,0,0.3-0.1,0.4-0.2c0.2-0.1,0.3-0.1,0.5-0.2c0.1-0.1,0.3-0.2,0.4-0.3c1.1-0.8,2.3-2.3,3.3-4.1c1-1.8,2-3.8,2.9-5.9l2.7-6.5
		c1.7-4.3,3.3-8.7,4.7-13.1c2.9-8.9,5.3-17.9,7.6-27.2L168.4,41c0.8-2.9,3.8-4.7,6.7-3.9c2.9,0.8,4.7,3.8,3.9,6.7c0,0,0,0.1,0,0.1
		l-15.7,54.8c-2.5,9.1-5.2,18.4-8.3,27.6c-1.6,4.6-3.3,9.1-5.2,13.6l-2.9,6.6c-1,2.3-2.1,4.6-3.5,6.9c-1.4,2.3-3.2,4.7-5.9,6.6
		l-1.1,0.7c-0.4,0.2-0.8,0.4-1.1,0.5c-0.4,0.2-0.7,0.4-1.2,0.5c-0.4,0.1-0.9,0.3-1.3,0.4c-0.4,0.1-1,0.2-1.5,0.2c-0.5,0-1,0.1-1.5,0
		c-0.5-0.1-1.1-0.1-1.6-0.2c-0.5-0.1-1-0.3-1.5-0.5c-1.9-0.8-3.4-2-4.4-3.3c-0.6-0.6-1-1.3-1.4-1.9c-0.4-0.6-0.8-1.3-1.1-1.9
		c-1.3-2.5-2.1-5-2.8-7.5c-1.3-4.9-2.1-9.8-2.6-14.7c-0.5-4.8-0.8-9.7-1-14.5c-0.2-4.8-0.3-9.5-0.6-14.2c-0.3-4.7-0.7-9.3-1.4-13.9
		c-0.6-4.6-1.5-9.1-2.7-13.5c-0.6-2.2-1.3-4.3-2.2-6.3c-0.9-2-1.9-3.8-3.1-5.3c-1.2-1.5-2.6-2.5-4.1-2.9c-0.7-0.2-1.5-0.2-2.4-0.1
		c-0.4,0-0.8,0.2-1.2,0.2c-0.4,0.2-0.8,0.3-1.2,0.5c-1.6,0.8-3.3,2.1-4.8,3.6c-1.5,1.5-2.9,3.3-4.1,5.1c-1.2,1.8-2.3,3.8-3.2,5.8
		c-0.9,2.1-1.9,4.3-2.8,6.5c-1.8,4.4-3.6,8.8-5.3,13.2c-7,17.6-13.8,35.6-23.1,52.4c-1.1,2.1-2.5,4.4-4.4,6.3
		c-0.9,1-2.1,1.9-3.5,2.5c-1.4,0.7-3.1,0.9-4.7,0.7c-1.6-0.2-3-0.8-4.1-1.6c-1.2-0.8-2.2-1.6-3.1-2.6c-1.8-1.9-3.3-3.9-4.6-6
		c-2.6-4.2-4.7-8.5-6.6-12.9c-1.9-4.4-3.6-8.9-5.2-13.4c-3.2-9-5.9-18.2-8.4-27.4C4.3,85.5,2,76.2,0,66.9c-0.1-0.6,0.3-1.3,0.9-1.4
		C1.6,65.4,2.2,65.8,2.3,66.4L2.3,66.4z"/>
</g>
<path class="st1" d="M119.1,79.4"/>
<g>
	<polygon class="st2" points="134.5,54.1 179.3,6.6 185.5,0 187.4,8.9 201.2,72.7 177.9,11.7 186,14 	"/>
</g>
</svg>